Coordinates
version=1
nRows=19
nColumns=24
inDegrees=yes

Units are S.I. units (second, meters, Newtons, ...)
Angles are in degrees.

endheader
time	pelvis_tilt	pelvis_list	pelvis_rotation	pelvis_tx	pelvis_ty	pelvis_tz	hip_flexion_r	hip_adduction_r	hip_rotation_r	knee_angle_r	ankle_angle_r	subtalar_angle_r	mtp_angle_r	hip_flexion_l	hip_adduction_l	hip_rotation_l	knee_angle_l	ankle_angle_l	subtalar_angle_l	mtp_angle_l	lumbar_extension	lumbar_bending	lumbar_rotation
      5.59000000	      9.80884921	      4.14440062	      7.25794801	     -0.20488091	      0.88864509	      0.20753115	     15.84963837	     -5.58941820	    -10.39587392	     -9.72626772	     15.73088930	     12.71002178	      0.00000000	    -31.87017786	      4.24531289	      7.32220778	    -11.00385412	     16.17726348	     -5.31547538	      0.00000000	    -28.65853265	      1.82619075	    -14.39654964
      5.60000000	      9.61984364	      3.73949916	      7.27731419	     -0.18842498	      0.88676717	      0.20916027	     17.01302589	     -5.24978030	    -10.28126906	    -13.11202196	     15.76761895	     13.05402578	      0.00000000	    -31.22611785	      3.51423928	      5.42646823	    -13.35800889	     15.93984369	     -2.99918351	      0.00000000	    -28.05261965	      2.36988651	    -14.76212135
      5.61000000	      9.61098846	      3.19822600	      7.30768106	     -0.17179613	      0.88528400	      0.21087657	     17.86316841	     -4.71466259	    -10.08883014	    -16.24145884	     15.57791436	     13.07699657	      0.00000000	    -30.63444546	      2.56839388	      3.59972285	    -15.86398811	     15.19710150	     -1.01797133	      0.00000000	    -27.64095532	      3.08609616	    -14.98487963
      5.62000000	      9.68856410	      2.60458249	      7.38524434	     -0.15512970	      0.88413634	      0.21256024	     18.52945538	     -4.10565897	     -9.92763807	    -19.17274766	     15.39463310	     12.86890258	      0.00000000	    -29.98362693	      1.52775658	      2.14080906	    -18.52214554	     13.75928423	      0.30120835	      0.00000000	    -27.33467035	      3.89104796	    -15.22373018
      5.63000000	      9.87837814	      1.96107499	      7.49643490	     -0.13850900	      0.88332877	      0.21420714	     18.98733448	     -3.42509998	     -9.89099037	    -21.92958130	     15.47022118	     12.57072430	      0.00000000	    -29.26122455	      0.40731273	      0.97990110	    -21.36946706	     11.67675000	      1.08947772	      0.00000000	    -27.17723886	      4.77442479	    -15.43231154
      5.64000000	     10.22400263	      1.28120520	      7.66777352	     -0.12204553	      0.88290783	      0.21576656	     19.13142687	     -2.66980937	     -9.98292314	    -24.44491141	     15.89489630	     12.25886520	      0.00000000	    -28.48179335	     -0.77935393	      0.15380287	    -24.42352115	      8.97063266	      1.36342552	      0.00000000	    -27.23264177	      5.73721552	    -15.63208151
      5.65000000	     10.52469266	      0.57887396	      7.89233710	     -0.10578884	      0.88254357	      0.21731523	     19.16800640	     -1.86084769	    -10.19376877	    -26.71399085	     16.69906056	     11.84840544	      0.00000000	    -27.36901612	     -2.01934993	     -0.49460728	    -27.78102965	      6.03052674	      1.57062244	      0.00000000	    -27.25824147	      6.70302348	    -15.78694932
      5.66000000	     10.73423391	     -0.08864873	      8.21555464	     -0.08986413	      0.88223365	      0.21877386	     19.07350021	     -1.04781911	    -10.43911458	    -28.62585531	     17.80098957	     11.43210103	      0.00000000	    -25.88343493	     -3.22154078	     -0.74312899	    -31.38864923	      2.90893058	      1.57100971	      0.00000000	    -27.21273613	      7.62424886	    -15.99105208
      5.67000000	     10.89893622	     -0.78115207	      8.65157395	     -0.07433603	      0.88201788	      0.22015011	     18.77348244	     -0.15921936	    -10.75934664	    -30.10081045	     19.09041606	     11.00599391	      0.00000000	    -24.08348280	     -4.45535302	     -0.68378536	    -35.19966104	      0.02557864	      1.56365943	      0.00000000	    -27.13943241	      8.57252981	    -16.17593698
      5.68000000	     10.89845261	     -1.48043350	      9.19277179	     -0.05925713	      0.88177030	      0.22144720	     18.42209008	      0.76276265	    -11.12170638	    -31.15034771	     20.45305916	     10.56651937	      0.00000000	    -21.85360217	     -5.65823198	     -0.31889307	    -39.17708235	     -2.26610611	      1.64911634	      0.00000000	    -26.89431221	      9.50018781	    -16.38132693
      5.69000000	     10.73841015	     -2.19079441	      9.84353848	     -0.04464908	      0.88156534	      0.22260875	     18.02919211	      1.70562365	    -11.52402485	    -31.77107553	     21.77666861	     10.13639475	      0.00000000	    -19.24258486	     -6.78755813	      0.38279263	    -43.22362820	     -3.73320547	      1.86231895	      0.00000000	    -26.47272287	     10.42078095	    -16.56891967
      5.70000000	     10.45801870	     -2.89115136	     10.56900186	     -0.03048640	      0.88152740	      0.22362150	     17.59428802	      2.62918904	    -11.98531870	    -32.02206433	     23.00092876	      9.73884015	      0.00000000	    -16.35686044	     -7.79004313	      1.32306085	    -47.21080558	     -4.29623962	      2.13415744	      0.00000000	    -25.91189971	     11.30555153	    -16.75393756
      5.71000000	     10.12797478	     -3.55658473	     11.33682593	     -0.01674071	      0.88184521	      0.22443777	     17.06394643	      3.50107990	    -12.51289979	    -31.94098552	     24.06447423	      9.41781248	      0.00000000	    -13.33944167	     -8.59997866	      2.45728684	    -51.01285860	     -4.04552293	      2.37497265	      0.00000000	    -25.30242789	     12.14340424	    -16.88761969
      5.72000000	      9.79725142	     -4.13736679	     12.10646781	     -0.00332014	      0.88267031	      0.22509474	     16.39964989	      4.28842450	    -13.04877006	    -31.57917887	     24.97198211	      9.21160598	      0.00000000	    -10.31857058	     -9.15455487	      3.69749370	    -54.51186838	     -3.16108777	      2.52622991	      0.00000000	    -24.69034233	     12.86146303	    -16.97499955
      5.73000000	      9.53548035	     -4.58640423	     12.82890249	      0.00980870	      0.88413136	      0.22558745	     15.54119426	      4.94399867	    -13.62215452	    -30.99335083	     25.70996105	      9.12521051	      0.00000000	     -7.42918362	     -9.41844905	      4.91768385	    -57.63242199	     -1.90003368	      2.52664370	      0.00000000	    -24.19680392	     13.43260939	    -16.97074895
      5.74000000	      9.35002079	     -4.86870859	     13.46009187	      0.02272539	      0.88624254	      0.22598557	     14.48044809	      5.45239457	    -14.17636381	    -30.22007388	     26.30017194	      9.16394696	      0.00000000	     -4.73574344	     -9.37162803	      6.03190829	    -60.32457125	     -0.48898793	      2.36926881	      0.00000000	    -23.84463730	     13.80527864	    -16.85355780
      5.75000000	      9.25755519	     -4.97472515	     13.97805436	      0.03547272	      0.88897004	      0.22633581	     13.20349816	      5.81592874	    -14.70086610	    -29.28781947	     26.74719812	      9.28824816	      0.00000000	     -2.28541356	     -9.03917071	      6.97707734	    -62.57659432	      0.86417565	      2.08373396	      0.00000000	    -23.67626741	     13.97337876	    -16.58453340
      5.76000000	      9.16139070	     -4.91096541	     14.32151676	      0.04816853	      0.89211471	      0.22675184	     11.81063165	      6.04537879	    -15.08628659	    -28.21099696	     27.09383675	      9.50578401	      0.00000000	     -0.01721896	     -8.43718513	      7.67670346	    -64.38322883	      2.14917603	      1.72475913	      0.00000000	    -23.56945911	     13.90149981	    -16.18377480
      5.77000000	      9.07283712	     -4.70744582	     14.49129573	      0.06086251	      0.89558755	      0.22727066	     10.28918551	      6.17506187	    -15.33092134	    -26.98126835	     27.32534130	      9.76250544	      0.00000000	      2.05122669	     -7.64519378	      8.10911096	    -65.75025190	      3.28542278	      1.33114864	      0.00000000	    -23.53559069	     13.62511849	    -15.63799123
